<?xml version="1.0" encoding="utf-8"?>
<!-- Generator: Adobe Illustrator 23.0.3, SVG Export Plug-In . SVG Version: 6.00 Build 0)  -->
<svg version="1.1" id="Layer_1" xmlns="http://www.w3.org/2000/svg" xmlns:xlink="http://www.w3.org/1999/xlink" x="0px" y="0px"
	 viewBox="0 0 539.75 194.81" style="enable-background:new 0 0 539.75 194.81;" xml:space="preserve">
<style type="text/css">
	.st0{clip-path:url(#SVGID_2_);fill:#FFFFFF;}
</style>
<g>
	<defs>
		<rect id="SVGID_1_" width="539.75" height="194.81"/>
	</defs>
	<clipPath id="SVGID_2_">
		<use xlink:href="#SVGID_1_"  style="overflow:visible;"/>
	</clipPath>
	<path class="st0" d="M533.92,80.63h-31.41c-3.22,0-5.76,2.94-5.76,6.16v45.02c0,10.92-9.38,20.27-20.66,20.27
		c-0.06,0-0.34-0.01-0.34-0.01s-0.28,0.01-0.34,0.01c-11.27,0-20.66-9.35-20.66-20.27V86.79c0-3.22-2.54-6.16-5.76-6.16h-31.41
		c-3.22,0-5.83,2.94-5.83,6.16v44.84h0.01c0.28,35,28.99,63.18,63.99,63.18c35,0,63.71-28.18,63.99-63.18h0.01V86.79
		C539.75,83.57,537.14,80.63,533.92,80.63"/>
	<path class="st0" d="M326.72,80.95l-36.73-0.05c-3.41,0-6.63,1.6-8.68,4.32l-12.66,16.81l-12.67-16.81
		c-2.05-2.73-5.27-4.33-8.68-4.32l-36.73,0.05c-4.81,0.01-7.54,5.5-4.65,9.34l35.79,47.5l-35.79,47.51
		c-2.89,3.84-0.15,9.34,4.66,9.34h36.75c3.41,0,6.62-1.6,8.67-4.32l12.65-16.79l12.65,16.79c2.05,2.72,5.26,4.32,8.67,4.32h36.75
		c4.81,0,7.55-5.5,4.66-9.34l-35.79-47.51l35.79-47.5C334.26,86.45,331.52,80.95,326.72,80.95"/>
	<path class="st0" d="M121.36,0.25H79.78H47.41H14.7C6.58,0.25,0,6.84,0,14.95v27.31v1v145.56c0,3.22,2.61,5.83,5.83,5.83h31.35
		c3.22,0,5.83-2.61,5.83-5.83v-65.06h62.32c3.22,0,5.83-2.61,5.83-5.83V86.59c0-3.22-2.61-5.83-5.83-5.83H43.01V43.26h4.4h32.36
		h41.58c3.22,0,5.83-2.61,5.83-5.84V6.09C127.19,2.87,124.58,0.25,121.36,0.25"/>
	<path class="st0" d="M181.54,80.96h-31.35c-3.22,0-5.83,2.61-5.83,5.83v102.03c0,3.22,2.61,5.83,5.83,5.83h31.35
		c3.22,0,5.83-2.61,5.83-5.83V86.79C187.37,83.57,184.76,80.96,181.54,80.96"/>
	<path class="st0" d="M165.79,0c-12.27,0-22.21,9.94-22.21,22.21c0,12.27,9.95,22.21,22.21,22.21c12.27,0,22.21-9.94,22.21-22.21
		C188,9.95,178.05,0,165.79,0"/>
	<path class="st0" d="M370.79,115c-12.27,0-22.21,9.95-22.21,22.21c0,12.27,9.95,22.21,22.21,22.21c12.27,0,22.21-9.94,22.21-22.21
		C393,124.95,383.05,115,370.79,115"/>
</g>
</svg>
